<svg xmlns="http://www.w3.org/2000/svg" width="780.4" height="667.7" viewBox="0 0 206.5 176.7">
    <path d="m83 48.4 3.3 3.3-4.5.7-1.9 2.6-2-2.6"
          style="fill:#c72000;fill-opacity:1;stroke:none;stroke-width:.1;stroke-linecap:butt;stroke-linejoin:miter;stroke-miterlimit:4;stroke-dasharray:none;stroke-opacity:1"
          transform="translate(-2.3 -15.2)"/>
    <path d="m20.6 75.7 3.1-10.4 4 4z"
          style="fill:#565047;fill-opacity:1;stroke:none;stroke-width:.1;stroke-linecap:butt;stroke-linejoin:miter;stroke-miterlimit:4;stroke-dasharray:none;stroke-opacity:1"
          transform="translate(-2.3 -15.2)"/>
    <path d="M23.7 65.3 36 56.6l-8.2 12.6Z"
          style="fill:#272523;fill-opacity:1;stroke:none;stroke-width:.1;stroke-linecap:butt;stroke-linejoin:miter;stroke-miterlimit:4;stroke-dasharray:none;stroke-opacity:1"
          transform="translate(-2.3 -15.2)"/>
    <path d="m27.8 69.2 20.4-7.8L36 56.6l-8.2 12.6"
          style="fill:#5e4d43;fill-opacity:1;stroke:none;stroke-width:.1;stroke-linecap:butt;stroke-linejoin:miter;stroke-miterlimit:4;stroke-dasharray:none;stroke-opacity:1"
          transform="translate(-2.3 -15.2)"/>
    <path d="m36 56.6 2.5-3 9.7 7.8z"
          style="fill:#e6e2dc;fill-opacity:1;stroke:none;stroke-width:.1;stroke-linecap:butt;stroke-linejoin:miter;stroke-miterlimit:4;stroke-dasharray:none;stroke-opacity:1"
          transform="translate(-2.3 -15.2)"/>
    <path d="m38.5 53.6 16.4 4-6.7 3.8z"
          style="fill:#d9c9b9;fill-opacity:1;stroke:none;stroke-width:.1;stroke-linecap:butt;stroke-linejoin:miter;stroke-miterlimit:4;stroke-dasharray:none;stroke-opacity:1"
          transform="translate(-2.3 -15.2)"/>
    <path d="m38.5 53.6 6.6-3.2 9.8 7.2z"
          style="fill:#e6dbd3;fill-opacity:1;stroke:none;stroke-width:.1;stroke-linecap:butt;stroke-linejoin:miter;stroke-miterlimit:4;stroke-dasharray:none;stroke-opacity:1"
          transform="translate(-2.3 -15.2)"/>
    <path d="m27.8 69.2 4 2.5-8.8 1.9 4.8-4.4 20.4-7.8L32 71.8l-4.1-2.6"
          style="fill:#45322a;fill-opacity:1;stroke:none;stroke-width:.1;stroke-linecap:butt;stroke-linejoin:miter;stroke-miterlimit:4;stroke-dasharray:none;stroke-opacity:1"
          transform="translate(-2.3 -15.2)"/>
    <path d="m32 71.8 18.7-4.2-2.5-6.2Z"
          style="fill:#978171;fill-opacity:1;stroke:none;stroke-width:.1;stroke-linecap:butt;stroke-linejoin:miter;stroke-miterlimit:4;stroke-dasharray:none;stroke-opacity:1"
          transform="translate(-2.3 -15.2)"/>
    <path d="m50.7 67.6 2.9 5.6L42 69.5z"
          style="fill:#61594d;fill-opacity:1;stroke:none;stroke-width:.1;stroke-linecap:butt;stroke-linejoin:miter;stroke-miterlimit:4;stroke-dasharray:none;stroke-opacity:1"
          transform="translate(-2.3 -15.2)"/>
    <path d="m48.2 61.4 6.7-3.8-4.2 10z"
          style="fill:#877969;fill-opacity:1;stroke:none;stroke-width:.1;stroke-linecap:butt;stroke-linejoin:miter;stroke-miterlimit:4;stroke-dasharray:none;stroke-opacity:1"
          transform="translate(-2.3 -15.2)"/>
    <path d="m55 57.6 18.2 20.7-22.5-10.7 4.2-10"
          style="fill:#665f55;fill-opacity:1;stroke:none;stroke-width:.1;stroke-linecap:butt;stroke-linejoin:miter;stroke-miterlimit:4;stroke-dasharray:none;stroke-opacity:1"
          transform="translate(-2.3 -15.2)"/>
    <path d="m50.7 67.6 2.9 5.6 7.5-.7z"
          style="fill:#71695a;fill-opacity:1;stroke:none;stroke-width:.1;stroke-linecap:butt;stroke-linejoin:miter;stroke-miterlimit:4;stroke-dasharray:none;stroke-opacity:1"
          transform="translate(-2.3 -15.2)"/>
    <path d="M53.6 73.2 65 83.4l-4-10.9z"
          style="fill:#5e5d48;fill-opacity:1;stroke:none;stroke-width:.1;stroke-linecap:butt;stroke-linejoin:miter;stroke-miterlimit:4;stroke-dasharray:none;stroke-opacity:1"
          transform="translate(-2.3 -15.2)"/>
    <path d="m60.1 79 2.5 19L65 83.4z"
          style="fill:#4b4733;fill-opacity:1;stroke:none;stroke-width:.1;stroke-linecap:butt;stroke-linejoin:miter;stroke-miterlimit:4;stroke-dasharray:none;stroke-opacity:1"
          transform="translate(-2.3 -15.2)"/>
    <path d="m61.1 72.5 3.9 11 8.2-5.2z"
          style="fill:#564f44;fill-opacity:1;stroke:none;stroke-width:.1;stroke-linecap:butt;stroke-linejoin:miter;stroke-miterlimit:4;stroke-dasharray:none;stroke-opacity:1"
          transform="translate(-2.3 -15.2)"/>
    <path d="M65 83.4 81.4 110l-8.2-31.7-8.2 5.1"
          style="fill:#445339;fill-opacity:1;stroke:none;stroke-width:.1;stroke-linecap:butt;stroke-linejoin:miter;stroke-miterlimit:4;stroke-dasharray:none;stroke-opacity:1"
          transform="translate(-2.3 -15.2)"/>
    <path d="m45 50.4 6.3-13 3.6 20.2"
          style="fill:#5d5149;fill-opacity:1;stroke:none;stroke-width:.1;stroke-linecap:butt;stroke-linejoin:miter;stroke-miterlimit:4;stroke-dasharray:none;stroke-opacity:1"
          transform="translate(-2.3 -15.2)"/>
    <path d="m51.3 37.3 3.6 20.3 14.2-4.4-17.8-15.9"
          style="fill:#635346;fill-opacity:1;stroke:none;stroke-width:.1;stroke-linecap:butt;stroke-linejoin:miter;stroke-miterlimit:4;stroke-dasharray:none;stroke-opacity:1"
          transform="translate(-2.3 -15.2)"/>
    <path d="m69 53.2 4.5-10.9-9.2-15.8L69 53.2"
          style="fill:#6e665b;fill-opacity:1;stroke:none;stroke-width:.1;stroke-linecap:butt;stroke-linejoin:miter;stroke-miterlimit:4;stroke-dasharray:none;stroke-opacity:1"
          transform="translate(-2.3 -15.2)"/>
    <path d="m51.3 37.3 13-10.8L69 53.2Z"
          style="fill:#615b59;fill-opacity:1;stroke:none;stroke-width:.1;stroke-linecap:butt;stroke-linejoin:miter;stroke-miterlimit:4;stroke-dasharray:none;stroke-opacity:1"
          transform="translate(-2.3 -15.2)"/>
    <path d="m64.3 26.5 22-3-4.6 17.1-17.4-14.1"
          style="fill:#494446;fill-opacity:1;stroke:none;stroke-width:.1;stroke-linecap:butt;stroke-linejoin:miter;stroke-miterlimit:4;stroke-dasharray:none;stroke-opacity:1"
          transform="translate(-2.3 -15.2)"/>
    <path d="m73.5 42.3 8.2-1.7-17.4-14.1Z"
          style="fill:#56524d;fill-opacity:1;stroke:none;stroke-width:.1;stroke-linecap:butt;stroke-linejoin:miter;stroke-miterlimit:4;stroke-dasharray:none;stroke-opacity:1"
          transform="translate(-2.3 -15.2)"/>
    <path d="m81.7 40.6 5.6 4.5 37.3-.4z"
          style="fill:none;stroke:none;stroke-width:.1;stroke-linecap:butt;stroke-linejoin:miter;stroke-miterlimit:4;stroke-dasharray:none;stroke-opacity:1"
          transform="translate(-2.3 -15.2)"/>
    <path d="m86.4 23.4 22.6 7-27.3 10.2"
          style="fill:#3b3739;fill-opacity:1;stroke:none;stroke-width:.1;stroke-linecap:butt;stroke-linejoin:miter;stroke-miterlimit:4;stroke-dasharray:none;stroke-opacity:1"
          transform="translate(-2.3 -15.2)"/>
    <path d="m109 30.4 15.6 14.3-43-4"
          style="fill:#201f22;fill-opacity:1;stroke:none;stroke-width:.1;stroke-linecap:butt;stroke-linejoin:miter;stroke-miterlimit:4;stroke-dasharray:none;stroke-opacity:1"
          transform="translate(-2.3 -15.2)"/>
    <path d="m55 57.6 18.2 20.7-4.1-25.1Z"
          style="fill:#676056;fill-opacity:1;stroke:none;stroke-width:.1;stroke-linecap:butt;stroke-linejoin:miter;stroke-miterlimit:4;stroke-dasharray:none;stroke-opacity:1"
          transform="translate(-2.3 -15.2)"/>
    <path d="m69 53.2 12.1 4-9.7 10.1Z"
          style="fill:#5f564b;fill-opacity:1;stroke:none;stroke-width:.1;stroke-linecap:butt;stroke-linejoin:miter;stroke-miterlimit:4;stroke-dasharray:none;stroke-opacity:1"
          transform="translate(-2.3 -15.2)"/>
    <path d="m71.4 67.3 18.3 7.2-16.5 3.8"
          style="fill:none;stroke:none;stroke-width:.1;stroke-linecap:butt;stroke-linejoin:miter;stroke-miterlimit:4;stroke-dasharray:none;stroke-opacity:1"
          transform="translate(-2.3 -15.2)"/>
    <path d="M89.7 74.5 81 57.2l-9.7 10.1Z"
          style="fill:#494239;fill-opacity:1;stroke:none;stroke-width:.1;stroke-linecap:butt;stroke-linejoin:miter;stroke-miterlimit:4;stroke-dasharray:none;stroke-opacity:1"
          transform="translate(-2.3 -15.2)"/>
    <path d="m81.1 57.2 30 1.4-21.4 16z"
          style="fill:#4b453e;fill-opacity:1;stroke:none;stroke-width:.1;stroke-linecap:butt;stroke-linejoin:miter;stroke-miterlimit:4;stroke-dasharray:none;stroke-opacity:1"
          transform="translate(-2.3 -15.2)"/>
    <path d="m89.7 74.5 22.2-6.5-7.9-4.1z"
          style="fill:#302e2a;fill-opacity:1;stroke:none;stroke-width:.1;stroke-linecap:butt;stroke-linejoin:miter;stroke-miterlimit:4;stroke-dasharray:none;stroke-opacity:1"
          transform="translate(-2.3 -15.2)"/>
    <path d="m87.3 45 23.9 13.6-21.2-1Z"
          style="fill:#413a32;fill-opacity:1;stroke:none;stroke-width:.1;stroke-linecap:butt;stroke-linejoin:miter;stroke-miterlimit:4;stroke-dasharray:none;stroke-opacity:1"
          transform="translate(-2.3 -15.2)"/>
    <path d="m88.6 51.3-7.5 6 8.9.3z"
          style="fill:#5e4b3c;fill-opacity:1;stroke:none;stroke-width:.1;stroke-linecap:butt;stroke-linejoin:miter;stroke-miterlimit:4;stroke-dasharray:none;stroke-opacity:1"
          transform="translate(-2.3 -15.2)"/>
    <path d="m114.2 44.8-11 9.3-15.9-9Z"
          style="fill:#373534;fill-opacity:1;stroke:none;stroke-width:.1;stroke-linecap:butt;stroke-linejoin:miter;stroke-miterlimit:4;stroke-dasharray:none;stroke-opacity:1"
          transform="translate(-2.3 -15.2)"/>
    <path d="m114.2 44.8 10.4-.1 10 16.7-20.4-16.6"
          style="fill:#010106;fill-opacity:1;stroke:none;stroke-width:.1;stroke-linecap:butt;stroke-linejoin:miter;stroke-miterlimit:4;stroke-dasharray:none;stroke-opacity:1"
          transform="translate(-2.3 -15.2)"/>
    <path d="m134.6 61.4-20.4-16.6-11 9.3z"
          style="fill:#161414;fill-opacity:1;stroke:none;stroke-width:.1;stroke-linecap:butt;stroke-linejoin:miter;stroke-miterlimit:4;stroke-dasharray:none;stroke-opacity:1"
          transform="translate(-2.3 -15.2)"/>
    <path d="m103.2 54 8 4.6 23.4 2.8z"
          style="fill:#242121;fill-opacity:1;stroke:none;stroke-width:.1;stroke-linecap:butt;stroke-linejoin:miter;stroke-miterlimit:4;stroke-dasharray:none;stroke-opacity:1"
          transform="translate(-2.3 -15.2)"/>
    <path d="m111.2 58.6.7 9.4-7.9-4.1 7.2-5.3"
          style="fill:#181512;fill-opacity:1;stroke:none;stroke-width:.1;stroke-linecap:butt;stroke-linejoin:miter;stroke-miterlimit:4;stroke-dasharray:none;stroke-opacity:1"
          transform="translate(-2.3 -15.2)"/>
    <path d="m111.2 58.6.7 9.4"
          style="fill:none;stroke:none;stroke-width:.1;stroke-linecap:butt;stroke-linejoin:miter;stroke-miterlimit:4;stroke-dasharray:none;stroke-opacity:1"
          transform="translate(-2.3 -15.2)"/>
    <path d="M134.6 61.4 112 68l-.7-9.4z"
          style="fill:#272321;fill-opacity:1;stroke:none;stroke-width:.1;stroke-linecap:butt;stroke-linejoin:miter;stroke-miterlimit:4;stroke-dasharray:none;stroke-opacity:1"
          transform="translate(-2.3 -15.2)"/>
    <path d="m111.9 68 31.3 17.2-8.6-23.8L112 68"
          style="fill:#020202;fill-opacity:1;stroke:none;stroke-width:.1;stroke-linecap:butt;stroke-linejoin:miter;stroke-miterlimit:4;stroke-dasharray:none;stroke-opacity:1"
          transform="translate(-2.3 -15.2)"/>
    <path d="m143.2 85.2 10.2 27.9L126.7 88Z"
          style="fill:#000101;fill-opacity:1;stroke:none;stroke-width:.1;stroke-linecap:butt;stroke-linejoin:miter;stroke-miterlimit:4;stroke-dasharray:none;stroke-opacity:1"
          transform="translate(-2.3 -15.2)"/>
    <path d="M126.7 88 112 68l31.3 17.2z"
          style="fill:#050403;fill-opacity:1;stroke:none;stroke-width:.1;stroke-linecap:butt;stroke-linejoin:miter;stroke-miterlimit:4;stroke-dasharray:none;stroke-opacity:1"
          transform="translate(-2.3 -15.2)"/>
    <path d="m126.7 88 26.7 25-27 10.1z"
          style="fill:#060605;fill-opacity:1;stroke:none;stroke-width:.1;stroke-linecap:butt;stroke-linejoin:miter;stroke-miterlimit:4;stroke-dasharray:none;stroke-opacity:1"
          transform="translate(-2.3 -15.2)"/>
    <path d="m126.7 88-37-13.5 22.2-6.5Z"
          style="fill:#26271d;fill-opacity:1;stroke:none;stroke-width:.1;stroke-linecap:butt;stroke-linejoin:miter;stroke-miterlimit:4;stroke-dasharray:none;stroke-opacity:1"
          transform="translate(-2.3 -15.2)"/>
    <path d="m89.7 74.5 17.1 42.6-33.6-38.8Z"
          style="fill:#394530;fill-opacity:1;stroke:none;stroke-width:.1;stroke-linecap:butt;stroke-linejoin:miter;stroke-miterlimit:4;stroke-dasharray:none;stroke-opacity:1"
          transform="translate(-2.3 -15.2)"/>
    <path d="m126.7 88-19.9 29-17.1-42.5 37 13.5"
          style="fill:#35442e;fill-opacity:1;stroke:none;stroke-width:.1;stroke-linecap:butt;stroke-linejoin:miter;stroke-miterlimit:4;stroke-dasharray:none;stroke-opacity:1"
          transform="translate(-2.3 -15.2)"/>
    <path d="m76.7 49.2 2.6-2.9 3.6 2.1-1.1 4H78z"
          style="fill:#000;fill-opacity:1;stroke:none;stroke-width:.1;stroke-linecap:butt;stroke-linejoin:miter;stroke-miterlimit:4;stroke-dasharray:none;stroke-opacity:1"
          transform="translate(-2.3 -15.2)"/>
    <path d="m79.3 46.3-2.6 2.9-.8-3.8 3.4 1 3.8-3-.2 5-3.6-2m-1.3 6-2.7 1 1.4-4.2"
          style="fill:none;stroke:none;stroke-width:.1;stroke-linecap:butt;stroke-linejoin:miter;stroke-miterlimit:4;stroke-dasharray:none;stroke-opacity:1"
          transform="translate(-2.3 -15.2)"/>
    <path d="m75.9 45.4.8 3.8-3.1.1 2.3-3.9 3.8-2.3-.4 3.2-3.4-.9"
          style="fill:#330200;fill-opacity:1;stroke:none;stroke-width:.1;stroke-linecap:butt;stroke-linejoin:miter;stroke-miterlimit:4;stroke-dasharray:none;stroke-opacity:1"
          transform="translate(-2.3 -15.2)"/>
    <path d="m79.7 43.1 3.4.3-3.8 3z"
          style="fill:#960800;fill-opacity:1;stroke:none;stroke-width:.1;stroke-linecap:butt;stroke-linejoin:miter;stroke-miterlimit:4;stroke-dasharray:none;stroke-opacity:1"
          transform="translate(-2.3 -15.2)"/>
    <path d="m83.1 43.4 3 2.7-3.2 2.3z"
          style="fill:#570100;fill-opacity:1;stroke:none;stroke-width:.1;stroke-linecap:butt;stroke-linejoin:miter;stroke-miterlimit:4;stroke-dasharray:none;stroke-opacity:1"
          transform="translate(-2.3 -15.2)"/>
    <path d="m86 46.1.3 5.6-3.4-3.3 3.1-2.3"
          style="fill:#480600;fill-opacity:1;stroke:none;stroke-width:.1;stroke-linecap:butt;stroke-linejoin:miter;stroke-miterlimit:4;stroke-dasharray:none;stroke-opacity:1"
          transform="translate(-2.3 -15.2)"/>
    <path d="M86.3 51.7 83 54.4l-1.2-2Z"
          style="fill:#260000;fill-opacity:1;stroke:none;stroke-width:.1;stroke-linecap:butt;stroke-linejoin:miter;stroke-miterlimit:4;stroke-dasharray:none;stroke-opacity:1"
          transform="translate(-2.3 -15.2)"/>
    <path d="m83 54.4-3 .6 1.8-2.6z"
          style="fill:#b72901;fill-opacity:1;stroke:none;stroke-width:.1;stroke-linecap:butt;stroke-linejoin:miter;stroke-miterlimit:4;stroke-dasharray:none;stroke-opacity:1"
          transform="translate(-2.3 -15.2)"/>
    <path d="m78 52.4-2.7 1L80 55z"
          style="fill:#af0c00;fill-opacity:1;stroke:none;stroke-width:.1;stroke-linecap:butt;stroke-linejoin:miter;stroke-miterlimit:4;stroke-dasharray:none;stroke-opacity:1"
          transform="translate(-2.3 -15.2)"/>
    <path d="m76.7 49.2-1.4 4.2-1.7-4z"
          style="fill:#c92b00;fill-opacity:1;stroke:none;stroke-width:.1;stroke-linecap:butt;stroke-linejoin:miter;stroke-miterlimit:4;stroke-dasharray:none;stroke-opacity:1"
          transform="translate(-2.3 -15.2)"/>
    <path d="m83 48.4 3.3 3.3-4.5.7 1.1-4"
          style="fill:#b01400;fill-opacity:1;stroke:none;stroke-width:.1;stroke-linecap:butt;stroke-linejoin:miter;stroke-miterlimit:4;stroke-dasharray:none;stroke-opacity:1"
          transform="translate(-2.3 -15.2)"/>
    <path d="m83.1 43.4-.2 5-3.6-2 3.8-3"
          style="fill:#b72901;fill-opacity:1;stroke:none;stroke-width:.1;stroke-linecap:butt;stroke-linejoin:miter;stroke-miterlimit:4;stroke-dasharray:none;stroke-opacity:1"
          transform="translate(-2.3 -15.2)"/>
    <path d="m76.7 49.2-1.4 4.2 2.7-1-1.3-3.2"
          style="fill:#a11900;fill-opacity:1;stroke:none;stroke-width:.1;stroke-linecap:butt;stroke-linejoin:miter;stroke-miterlimit:4;stroke-dasharray:none;stroke-opacity:1"
          transform="translate(-2.3 -15.2)"/>
    <path d="m75.9 45.4.8 3.8 2.6-2.9-3.4-.9"
          style="fill:#cf3e10;fill-opacity:1;stroke:none;stroke-width:.1;stroke-linecap:butt;stroke-linejoin:miter;stroke-miterlimit:4;stroke-dasharray:none;stroke-opacity:1"
          transform="translate(-2.3 -15.2)"/>
    <path d="m81.7 40.6 1.4 2.8-3.4-.3z"
          style="fill:#5e5142;fill-opacity:1;stroke:none;stroke-width:.1;stroke-linecap:butt;stroke-linejoin:miter;stroke-miterlimit:4;stroke-dasharray:none;stroke-opacity:1"
          transform="translate(-2.3 -15.2)"/>
    <path d="m81.7 40.6-2 2.5-6.2-.8 8.2-1.7"
          style="fill:#927c57;fill-opacity:1;stroke:none;stroke-width:.1;stroke-linecap:butt;stroke-linejoin:miter;stroke-miterlimit:4;stroke-dasharray:none;stroke-opacity:1"
          transform="translate(-2.3 -15.2)"/>
    <path d="m73.5 42.3 2.4 3.1 3.8-2.3z"
          style="fill:#8c563f;fill-opacity:1;stroke:none;stroke-width:.1;stroke-linecap:butt;stroke-linejoin:miter;stroke-miterlimit:4;stroke-dasharray:none;stroke-opacity:1"
          transform="translate(-2.3 -15.2)"/>
    <path d="m81.7 40.6 1.4 2.8 4.2 1.7-5.6-4.5"
          style="fill:#564b40;fill-opacity:1;stroke:none;stroke-width:.1;stroke-linecap:butt;stroke-linejoin:miter;stroke-miterlimit:4;stroke-dasharray:none;stroke-opacity:1"
          transform="translate(-2.3 -15.2)"/>
    <path d="m73.5 42.3-4.4 10.9 6.8-7.8-2.4-3"
          style="fill:#9c7241;fill-opacity:1;stroke:none;stroke-width:.1;stroke-linecap:butt;stroke-linejoin:miter;stroke-miterlimit:4;stroke-dasharray:none;stroke-opacity:1"
          transform="translate(-2.3 -15.2)"/>
    <path d="m75.9 45.4-2.3 4-4.5 3.8 6.8-7.8"
          style="fill:#8c7059;fill-opacity:1;stroke:none;stroke-width:.1;stroke-linecap:butt;stroke-linejoin:miter;stroke-miterlimit:4;stroke-dasharray:none;stroke-opacity:1"
          transform="translate(-2.3 -15.2)"/>
    <path d="m73.6 49.3 1.7 4.1-6.2-.2 4.5-3.9"
          style="fill:#8c6551;fill-opacity:1;stroke:none;stroke-width:.1;stroke-linecap:butt;stroke-linejoin:miter;stroke-miterlimit:4;stroke-dasharray:none;stroke-opacity:1"
          transform="translate(-2.3 -15.2)"/>
    <path d="m75.3 53.4 5.8 3.8-12-4 6.2.2"
          style="fill:#92795d;fill-opacity:1;stroke:none;stroke-width:.1;stroke-linecap:butt;stroke-linejoin:miter;stroke-miterlimit:4;stroke-dasharray:none;stroke-opacity:1"
          transform="translate(-2.3 -15.2)"/>
    <path d="m75.3 53.4 5.8 3.8L80 55z"
          style="fill:#85604d;fill-opacity:1;stroke:none;stroke-width:.1;stroke-linecap:butt;stroke-linejoin:miter;stroke-miterlimit:4;stroke-dasharray:none;stroke-opacity:1"
          transform="translate(-2.3 -15.2)"/>
    <path d="m83 54.4-1.9 2.8L80 55Z"
          style="fill:#ad8a69;fill-opacity:1;stroke:none;stroke-width:.1;stroke-linecap:butt;stroke-linejoin:miter;stroke-miterlimit:4;stroke-dasharray:none;stroke-opacity:1"
          transform="translate(-2.3 -15.2)"/>
    <path d="m83 54.4 5.6-3-7.5 5.8 1.9-2.8"
          style="fill:#9a7e5c;fill-opacity:1;stroke:none;stroke-width:.1;stroke-linecap:butt;stroke-linejoin:miter;stroke-miterlimit:4;stroke-dasharray:none;stroke-opacity:1"
          transform="translate(-2.3 -15.2)"/>
    <path d="m86.3 51.7 2.3-.4-5.6 3z"
          style="fill:#5a4d37;fill-opacity:1;stroke:none;stroke-width:.1;stroke-linecap:butt;stroke-linejoin:miter;stroke-miterlimit:4;stroke-dasharray:none;stroke-opacity:1"
          transform="translate(-2.3 -15.2)"/>
    <path d="M88.6 51.3 86 46.1l.3 5.6z"
          style="fill:#0f0807;fill-opacity:1;stroke:none;stroke-width:.1;stroke-linecap:butt;stroke-linejoin:miter;stroke-miterlimit:4;stroke-dasharray:none;stroke-opacity:1"
          transform="translate(-2.3 -15.2)"/>
    <path d="m87.3 45 1.3 6.3-2.6-5.2 1.3-1-1.3 1-2.9-2.7 4.2 1.7"
          style="fill:#5d5046;fill-opacity:1;stroke:none;stroke-width:.1;stroke-linecap:butt;stroke-linejoin:miter;stroke-miterlimit:4;stroke-dasharray:none;stroke-opacity:1"
          transform="translate(-2.3 -15.2)"/>
    <path d="m81.7 40.6 5.6 4.5 37.3-.4-43-4"
          style="fill:#4a4742;fill-opacity:1;stroke:none;stroke-width:.1;stroke-linecap:butt;stroke-linejoin:miter;stroke-miterlimit:4;stroke-dasharray:none;stroke-opacity:1"
          transform="translate(-2.3 -15.2)"/>
    <path d="m71.4 67.3 18.3 7.2-16.5 3.8-1.8-11"
          style="fill:#4f4a40;fill-opacity:1;stroke:none;stroke-width:.1;stroke-linecap:butt;stroke-linejoin:miter;stroke-miterlimit:4;stroke-dasharray:none;stroke-opacity:1"
          transform="translate(-2.3 -15.2)"/>
    <path d="m126.7 88-.3 35.1-19.6-6 20-29.1"
          style="fill:#333a2f;fill-opacity:1;stroke:none;stroke-width:.1;stroke-linecap:butt;stroke-linejoin:miter;stroke-miterlimit:4;stroke-dasharray:none;stroke-opacity:1"
          transform="translate(-2.3 -15.2)"/>
    <path d="m126.4 123.1 41.7 11.5-14.7-21.5z"
          style="fill:#09090b;fill-opacity:1;stroke:none;stroke-width:.1;stroke-linecap:butt;stroke-linejoin:miter;stroke-miterlimit:4;stroke-dasharray:none;stroke-opacity:1"
          transform="translate(-2.3 -15.2)"/>
    <path d="m168.1 134.6-2.7 31-39-42.5z"
          style="fill:#010203;fill-opacity:1;stroke:none;stroke-width:.1;stroke-linecap:butt;stroke-linejoin:miter;stroke-miterlimit:4;stroke-dasharray:none;stroke-opacity:1"
          transform="translate(-2.3 -15.2)"/>
    <path d="m168.1 134.6 38 27.2-40.7 3.8z"
          style="fill:#060508;fill-opacity:1;stroke:none;stroke-width:.1;stroke-linecap:butt;stroke-linejoin:miter;stroke-miterlimit:4;stroke-dasharray:none;stroke-opacity:1"
          transform="translate(-2.3 -15.2)"/>
    <path d="m165.4 165.6 41.3 26.7-.6-30.5z"
          style="fill:#121215;fill-opacity:1;stroke:none;stroke-width:.1;stroke-linecap:butt;stroke-linejoin:miter;stroke-miterlimit:4;stroke-dasharray:none;stroke-opacity:1"
          transform="translate(-2.3 -15.2)"/>
    <path d="M65 83.4 62.6 98l18.8 12L65 83.4"
          style="fill:#446043;fill-opacity:1;stroke:none;stroke-width:.1;stroke-linecap:butt;stroke-linejoin:miter;stroke-miterlimit:4;stroke-dasharray:none;stroke-opacity:1"
          transform="translate(-2.3 -15.2)"/>
    <path d="M62.6 98 61 138.2 81.4 110 62.6 98"
          style="fill:#373227;fill-opacity:1;stroke:none;stroke-width:.1;stroke-linecap:butt;stroke-linejoin:miter;stroke-miterlimit:4;stroke-dasharray:none;stroke-opacity:1"
          transform="translate(-2.3 -15.2)"/>
    <path d="m81.4 110 6.1 56.4-26.4-28.2"
          style="fill:#403e35;fill-opacity:1;stroke:none;stroke-width:.1;stroke-linecap:butt;stroke-linejoin:miter;stroke-miterlimit:4;stroke-dasharray:none;stroke-opacity:1"
          transform="translate(-2.3 -15.2)"/>
    <path d="M61 138.2 55.7 168l32-1.6L61 138.2"
          style="fill:#654748;fill-opacity:1;stroke:none;stroke-width:.1;stroke-linecap:butt;stroke-linejoin:miter;stroke-miterlimit:4;stroke-dasharray:none;stroke-opacity:1"
          transform="translate(-2.3 -15.2)"/>
    <path d="m73.2 78.3 8.2 31.7 25.4 7.1-33.6-38.8"
          style="fill:#487b56;fill-opacity:1;stroke:none;stroke-width:.1;stroke-linecap:butt;stroke-linejoin:miter;stroke-miterlimit:4;stroke-dasharray:none;stroke-opacity:1"
          transform="translate(-2.3 -15.2)"/>
    <path d="m81.4 110 6.1 56.4 38.9-43.3-45-13.1"
          style="fill:#5ea362;fill-opacity:1;stroke:none;stroke-width:.1;stroke-linecap:butt;stroke-linejoin:miter;stroke-miterlimit:4;stroke-dasharray:none;stroke-opacity:1"
          transform="translate(-2.3 -15.2)"/>
    <path d="m126.4 123.1 39 42.5-77.9.8 38.9-43.3"
          style="fill:#5d5f53;fill-opacity:1;stroke:none;stroke-width:.1;stroke-linecap:butt;stroke-linejoin:miter;stroke-miterlimit:4;stroke-dasharray:none;stroke-opacity:1"
          transform="translate(-2.3 -15.2)"/>
    <path d="m55.6 168 67.9 23.9-36-25.5Z"
          style="fill:#7e5567;fill-opacity:1;stroke:none;stroke-width:.1;stroke-linecap:butt;stroke-linejoin:miter;stroke-miterlimit:4;stroke-dasharray:none;stroke-opacity:1"
          transform="translate(-2.3 -15.2)"/>
    <path d="m87.5 166.4 36 25.5 42-26.3-78 .8"
          style="fill:#664452;fill-opacity:1;stroke:none;stroke-width:.1;stroke-linecap:butt;stroke-linejoin:miter;stroke-miterlimit:4;stroke-dasharray:none;stroke-opacity:1"
          transform="translate(-2.3 -15.2)"/>
    <path d="m165.4 165.6 41.3 26.7-83.2-.4 42-26.3"
          style="fill:#302e2d;fill-opacity:1;stroke:none;stroke-width:.1;stroke-linecap:butt;stroke-linejoin:miter;stroke-miterlimit:4;stroke-dasharray:none;stroke-opacity:1"
          transform="translate(-2.3 -15.2)"/>
    <path d="m55.6 168-.3 23.9h68.2L55.6 168"
          style="fill:#373227;fill-opacity:1;stroke:none;stroke-width:.264583px;stroke-linecap:butt;stroke-linejoin:miter;stroke-opacity:1"
          transform="translate(-2.3 -15.2)"/>
</svg>
